<?xml version="1.0" standalone="no"?>
<!DOCTYPE svg PUBLIC "-//W3C//DTD SVG 20010904//EN"
 "http://www.w3.org/TR/2001/REC-SVG-20010904/DTD/svg10.dtd">
<svg version="1.0" xmlns="http://www.w3.org/2000/svg"
 width="1024.000000pt" height="1024.000000pt" viewBox="0 0 1024.000000 1024.000000"
 preserveAspectRatio="xMidYMid meet">

<g transform="translate(0.000000,1024.000000) scale(0.100000,-0.100000)"
fill="#000000" stroke="none">
<path d="M1280 8960 l0 -1280 2560 0 2560 0 0 -640 0 -640 640 0 640 0 0 1280
0 1280 -1280 0 -1280 0 0 640 0 640 -1920 0 -1920 0 0 -1280z"/>
<path d="M1920 5440 l0 -320 -960 0 -960 0 0 -2560 0 -2560 1280 0 1280 0 0
1920 0 1920 320 0 320 0 0 -320 0 -320 320 0 320 0 0 -1600 0 -1600 640 0 640
0 0 1600 0 1600 320 0 320 0 0 320 0 320 320 0 320 0 0 -1920 0 -1920 1920 0
1920 0 0 2560 0 2560 -1280 0 -1280 0 0 320 0 320 -2880 0 -2880 0 0 -320z"/>
</g>
</svg>
